<?xml version="1.0" encoding="UTF-8" standalone="no"?>
<svg
   id="Layer_1"
   data-name="Layer 1"
   viewBox="0 0 833.51 174"
   version="1.1"
   sodipodi:docname="facebook.svg"
   width="833.51001"
   height="174"
   inkscape:version="1.1 (c68e22c387, 2021-05-23)"
   xmlns:inkscape="http://www.inkscape.org/namespaces/inkscape"
   xmlns:sodipodi="http://sodipodi.sourceforge.net/DTD/sodipodi-0.dtd"
   xmlns="http://www.w3.org/2000/svg"
   xmlns:svg="http://www.w3.org/2000/svg"
   xmlns:rdf="http://www.w3.org/1999/02/22-rdf-syntax-ns#"
   xmlns:cc="http://creativecommons.org/ns#"
   xmlns:dc="http://purl.org/dc/elements/1.1/">
  <sodipodi:namedview
     id="namedview25"
     pagecolor="#ffffff"
     bordercolor="#666666"
     borderopacity="1.0"
     inkscape:pageshadow="2"
     inkscape:pageopacity="0.0"
     inkscape:pagecheckerboard="0"
     showgrid="false"
     inkscape:lockguides="false"
     width="926.51001px"
     fit-margin-top="-2.2"
     fit-margin-left="-1.4"
     fit-margin-right="-0.9"
     inkscape:zoom="1.0347087"
     inkscape:cx="441.18697"
     inkscape:cy="139.65283"
     inkscape:window-width="1366"
     inkscape:window-height="745"
     inkscape:window-x="-8"
     inkscape:window-y="-8"
     inkscape:window-maximized="1"
     inkscape:current-layer="Layer_1" />
  <defs
     id="defs4">
    <style
       id="style2">.cls-1{fill:#1877F2;}</style>
  </defs>
  <title
     id="title6">FBWordmark_Hex-RGB-1024</title>
  <path
     class="cls-1"
     d="m 70.755778,31.005778 c -9.65,0 -12.44,4.28 -12.44,13.72 v 15.66 h 25.74 l -2.58,25.3 h -23.15 v 76.780002 h -30.89 V 85.685778 H 6.6257782 v -25.3 H 27.435778 v -15.23 c 0,-25.52 10.29,-38.9999998 39,-38.9999998 a 146.17,146.17 0 0 1 18,1.07 V 31.035778 Z"
     id="path8" />
  <path
     class="cls-1"
     d="m 86.195778,108.20578 c 0,-28.520002 13.51,-50.000002 41.820002,-50.000002 15.44,0 24.87,7.94 29.38,17.8 v -15.62 h 29.59 V 162.46578 h -29.59 v -15.44 c -4.29,9.87 -13.94,17.59 -29.38,17.59 -28.310002,0 -41.820002,-21.45 -41.820002,-50 z m 30.880002,6.87 c 0,15.22 5.57,25.3 19.94,25.3 12.66,0 19.09,-9.22 19.09,-23.8 v -10.25 c 0,-14.580002 -6.43,-23.800002 -19.09,-23.800002 -14.37,0 -19.94,10.08 -19.94,25.300002 z"
     id="path10" />
  <path
     class="cls-1"
     d="m 251.32578,58.235778 c 12,0 23.37,2.58 29.59,6.86 l -6.86,21.88 a 48.6,48.6 0 0 0 -20.59,-4.72 c -16.73,0 -24,9.65 -24,26.170002 v 6 c 0,16.52 7.29,26.17 24,26.17 a 48.6,48.6 0 0 0 20.59,-4.72 l 6.86,21.87 c -6.22,4.29 -17.58,6.87 -29.59,6.87 -36.25,0 -52.76,-19.52 -52.76,-50.83 v -4.72 c 0,-31.310002 16.51,-50.830002 52.76,-50.830002 z"
     id="path12" />
  <path
     class="cls-1"
     d="m 284.98578,115.32578 v -9 c 0,-28.950002 16.51,-48.000002 50.19,-48.000002 31.74,0 45.68,19.3 45.68,47.610002 v 16.3 h -65 c 0.65,13.94 6.87,20.16 24,20.16 11.59,0 23.81,-2.36 32.82,-6.22 l 5.65,21.15 c -8.15,4.3 -24.88,7.51 -39.67,7.51 -39.09,-0.01 -53.67,-19.51 -53.67,-49.51 z m 30.88,-13.3 h 37.32 v -2.570002 c 0,-11.15 -4.5,-20 -18,-20 -13.95,0.01 -19.32,8.81 -19.32,22.530002 z"
     id="path14" />
  <path
     class="cls-1"
     d="m 495.32578,114.64578 c 0,28.52 -13.72,50 -42,50 -15.44,0 -26.16,-7.72 -30.45,-17.59 v 15.44 h -29.16 V 9.1257782 l 30.88,-2.8 V 74.525778 c 4.5,-9 14.37,-16.3 28.74,-16.3 28.31,0 42,21.45 42,50.000002 z m -30.88,-7.08 c 0,-14.370002 -5.57,-25.090002 -20.37,-25.090002 -12.66,0 -19.52,9 -19.52,23.590002 v 10.72 c 0,14.58 6.86,23.59 19.52,23.59 14.8,0 20.37,-10.72 20.37,-25.09 z"
     id="path16" />
  <path
     class="cls-1"
     d="m 505.65578,113.99578 v -5.14 c 0,-29.390002 16.73,-50.620002 50.83,-50.620002 34.1,0 50.84,21.23 50.84,50.620002 v 5.14 c 0,29.38 -16.73,50.62 -50.83,50.62 -34.1,0 -50.84,-21.24 -50.84,-50.62 z m 70.78,-7.29 c 0,-13.510002 -5.58,-24.230002 -20,-24.230002 -14.42,0 -19.95,10.72 -19.95,24.230002 v 9.44 c 0,13.51 5.58,24.23 19.95,24.23 14.37,0 20,-10.72 20,-24.23 z"
     id="path18" />
  <path
     class="cls-1"
     d="m 617.59578,113.99578 v -5.14 c 0,-29.390002 16.73,-50.620002 50.83,-50.620002 34.1,0 50.83,21.23 50.83,50.620002 v 5.14 c 0,29.38 -16.73,50.62 -50.83,50.62 -34.1,0 -50.83,-21.24 -50.83,-50.62 z m 70.78,-7.29 c 0,-13.510002 -5.58,-24.230002 -19.95,-24.230002 -14.37,0 -19.94,10.72 -19.94,24.230002 v 9.44 c 0,13.51 5.57,24.23 19.94,24.23 14.37,0 19.95,-10.72 19.95,-24.23 z"
     id="path20" />
  <path
     class="cls-1"
     d="m 761.71578,109.06578 30.45,-48.680002 h 32.81 l -31.95,50.400002 33.24,51.68 h -32.81 l -31.74,-50 v 50 h -30.89 V 9.1257782 l 30.89,-2.8 z"
     id="path22" />
  <metadata
     id="metadata126">
    <rdf:RDF>
      <cc:Work
         rdf:about="">
        <dc:title>FBWordmark_Hex-RGB-1024</dc:title>
      </cc:Work>
    </rdf:RDF>
  </metadata>
</svg>
